# xmcd
#
# Track frame offsets:
#	150
#	16392
#	39900
#	52990
#	70750
#	91052
#
# Disc length: 1397 seconds
#
# Revision: 0
# Processed by: cddbd v1.5.2PL0 Copyright (c) Steve Scherf et al.
# Submitted via: EasyCDDAExtractor 2010.6.0.0
#
DISCID=3c057306
DTITLE=Crowell, Rodney - Soul searchin' - Six great hits
DYEAR=1997
DGENRE=Country
TTITLE0=She loves the jerk
TTITLE1=The last waltz
TTITLE2=We gotta go on meeting like this
TTITLE3=Soul searchin'
TTITLE4=Looking for you
TTITLE5=Crazy baby
EXTD=
EXTT0=
EXTT1=
EXTT2=
EXTT3=
EXTT4=
EXTT5=
PLAYORDER=
